<?xml version="1.0" encoding="UTF-8" standalone="no"?>
<!DOCTYPE svg PUBLIC "-//W3C//DTD SVG 1.1//EN"
 "http://www.w3.org/Graphics/SVG/1.1/DTD/svg11.dtd">
<!-- Generated by graphviz version 14.1.4 (0)
 -->
<!-- Title: Argument Map Pages: 1 -->
<svg class="argdown-summary-map" width="647pt" height="720pt"
 viewBox="0.00 0.00 647.00 720.00" xmlns="http://www.w3.org/2000/svg" xmlns:xlink="http://www.w3.org/1999/xlink">
<g id="graph0" class="graph" transform="scale(0.924362 0.924362) rotate(0) translate(4 774.92)">
<title>Argument Map</title>
<g id="clust1" class="cluster">
<title>cluster_1</title>
<polygon fill="#f3eadb" stroke="#d4c0a1" points="8,-14.92 8,-762.92 683.52,-762.92 683.52,-14.92 8,-14.92"/>
<text xml:space="preserve" text-anchor="start" x="307.08" y="-746.92" font-family="Inter, ui-sans-serif, system-ui, -apple-system, BlinkMacSystemFont, Segoe UI, sans-serif" font-size="12.00" fill="#2f2a21">Central Thesis</text>
</g>
<!-- n0 -->
<g id="node1" class="node">
<title>n0</title>
<g id="a_node1"><a xlink:title="Core Thesis">
<path fill="#fffdf7" stroke="#6f8f72" stroke-width="2" d="M663.52,-429.92C663.52,-429.92 491.68,-429.92 491.68,-429.92 485.68,-429.92 479.68,-423.92 479.68,-417.92 479.68,-417.92 479.68,-405.92 479.68,-405.92 479.68,-399.92 485.68,-393.92 491.68,-393.92 491.68,-393.92 663.52,-393.92 663.52,-393.92 669.52,-393.92 675.52,-399.92 675.52,-405.92 675.52,-405.92 675.52,-417.92 675.52,-417.92 675.52,-423.92 669.52,-429.92 663.52,-429.92"/>
<text xml:space="preserve" text-anchor="start" x="548.98" y="-409.92" font-family="Inter, ui-sans-serif, system-ui, -apple-system, BlinkMacSystemFont, Segoe UI, sans-serif" font-weight="bold" font-size="10.00" fill="#2f2a21">Core Thesis</text>
</a>
</g>
</g>
<!-- n1 -->
<g id="node2" class="node">
<title>n1</title>
<g id="a_node2"><a xlink:title="Accepted">
<path fill="#fffdf7" stroke="#6f8f72" stroke-width="2" d="M199.84,-68.92C199.84,-68.92 28,-68.92 28,-68.92 22,-68.92 16,-62.92 16,-56.92 16,-56.92 16,-44.92 16,-44.92 16,-38.92 22,-32.92 28,-32.92 28,-32.92 199.84,-32.92 199.84,-32.92 205.84,-32.92 211.84,-38.92 211.84,-44.92 211.84,-44.92 211.84,-56.92 211.84,-56.92 211.84,-62.92 205.84,-68.92 199.84,-68.92"/>
<text xml:space="preserve" text-anchor="start" x="91.41" y="-48.92" font-family="Inter, ui-sans-serif, system-ui, -apple-system, BlinkMacSystemFont, Segoe UI, sans-serif" font-weight="bold" font-size="10.00" fill="#2f2a21">Accepted</text>
</a>
</g>
</g>
<!-- n1&#45;&gt;n0 -->
<g id="edge2" class="edge">
<title>n1&#45;&gt;n0</title>
<g id="a_edge2"><a xlink:title="support">
<path fill="none" stroke="#6f8f72" d="M159.89,-32.5C228.09,-7.84 358.68,26.29 443.68,-33.92 559.83,-116.19 575.22,-308.42 576.72,-382.28"/>
<polygon fill="#6f8f72" stroke="#6f8f72" points="573.22,-382.01 576.84,-391.96 580.22,-381.92 573.22,-382.01"/>
</a>
</g>
</g>
<!-- n3 -->
<g id="node4" class="node">
<title>n3</title>
<g id="a_node4"><a xlink:title="Rejected">
<path fill="#fffdf7" stroke="#6f8f72" stroke-width="2" d="M431.68,-78.92C431.68,-78.92 259.84,-78.92 259.84,-78.92 253.84,-78.92 247.84,-72.92 247.84,-66.92 247.84,-66.92 247.84,-54.92 247.84,-54.92 247.84,-48.92 253.84,-42.92 259.84,-42.92 259.84,-42.92 431.68,-42.92 431.68,-42.92 437.68,-42.92 443.68,-48.92 443.68,-54.92 443.68,-54.92 443.68,-66.92 443.68,-66.92 443.68,-72.92 437.68,-78.92 431.68,-78.92"/>
<text xml:space="preserve" text-anchor="start" x="324.92" y="-58.92" font-family="Inter, ui-sans-serif, system-ui, -apple-system, BlinkMacSystemFont, Segoe UI, sans-serif" font-weight="bold" font-size="10.00" fill="#2f2a21">Rejected</text>
</a>
</g>
</g>
<!-- n1&#45;&gt;n3 -->
<g id="edge10" class="edge">
<title>n1&#45;&gt;n3</title>
<g id="a_edge10"><a xlink:title="attack">
<path fill="none" stroke="#b85b57" d="M212.06,-55.14C220.05,-55.49 228.17,-55.84 236.24,-56.19"/>
<polygon fill="#b85b57" stroke="#b85b57" points="235.94,-59.68 246.09,-56.62 236.25,-52.69 235.94,-59.68"/>
</a>
</g>
</g>
<!-- n2 -->
<g id="node3" class="node">
<title>n2</title>
<g id="a_node3"><a xlink:title="Deployment Conditions">
<path fill="#fffdf7" stroke="#6f8f72" stroke-width="2" d="M431.68,-132.92C431.68,-132.92 259.84,-132.92 259.84,-132.92 253.84,-132.92 247.84,-126.92 247.84,-120.92 247.84,-120.92 247.84,-108.92 247.84,-108.92 247.84,-102.92 253.84,-96.92 259.84,-96.92 259.84,-96.92 431.68,-96.92 431.68,-96.92 437.68,-96.92 443.68,-102.92 443.68,-108.92 443.68,-108.92 443.68,-120.92 443.68,-120.92 443.68,-126.92 437.68,-132.92 431.68,-132.92"/>
<text xml:space="preserve" text-anchor="start" x="289.65" y="-112.92" font-family="Inter, ui-sans-serif, system-ui, -apple-system, BlinkMacSystemFont, Segoe UI, sans-serif" font-weight="bold" font-size="10.00" fill="#2f2a21">Deployment Conditions</text>
</a>
</g>
</g>
<!-- n2&#45;&gt;n0 -->
<g id="edge8" class="edge">
<title>n2&#45;&gt;n0</title>
<g id="a_edge8"><a xlink:title="support">
<path fill="none" stroke="#6f8f72" d="M431.03,-133.33C435.52,-135.83 439.78,-138.68 443.68,-141.92 521.23,-206.25 557.37,-326.88 570.48,-382.48"/>
<polygon fill="#6f8f72" stroke="#6f8f72" points="567.05,-383.16 572.67,-392.14 573.88,-381.61 567.05,-383.16"/>
</a>
</g>
</g>
<!-- n3&#45;&gt;n0 -->
<g id="edge11" class="edge">
<title>n3&#45;&gt;n0</title>
<g id="a_edge11"><a xlink:title="attack">
<path fill="none" stroke="#b85b57" d="M431.76,-79.29C436.01,-81.8 440.02,-84.67 443.68,-87.92 533.98,-168.17 564.18,-319.03 573.17,-382.54"/>
<polygon fill="#b85b57" stroke="#b85b57" points="569.67,-382.74 574.46,-392.19 576.61,-381.82 569.67,-382.74"/>
</a>
</g>
</g>
<!-- n4 -->
<g id="node5" class="node">
<title>n4</title>
<g id="a_node5"><a xlink:title="Objection 1">
<path fill="#fffdf7" stroke="#6f8f72" stroke-width="2" d="M431.68,-584.92C431.68,-584.92 259.84,-584.92 259.84,-584.92 253.84,-584.92 247.84,-578.92 247.84,-572.92 247.84,-572.92 247.84,-560.92 247.84,-560.92 247.84,-554.92 253.84,-548.92 259.84,-548.92 259.84,-548.92 431.68,-548.92 431.68,-548.92 437.68,-548.92 443.68,-554.92 443.68,-560.92 443.68,-560.92 443.68,-572.92 443.68,-572.92 443.68,-578.92 437.68,-584.92 431.68,-584.92"/>
<text xml:space="preserve" text-anchor="start" x="318.53" y="-564.92" font-family="Inter, ui-sans-serif, system-ui, -apple-system, BlinkMacSystemFont, Segoe UI, sans-serif" font-weight="bold" font-size="10.00" fill="#2f2a21">Objection 1</text>
</a>
</g>
</g>
<!-- n4&#45;&gt;n0 -->
<g id="edge13" class="edge">
<title>n4&#45;&gt;n0</title>
<g id="a_edge13"><a xlink:title="attack">
<path fill="none" stroke="#b85b57" d="M415.12,-548.47C425.01,-544.63 434.83,-540.14 443.68,-534.92 487.67,-508.98 529.34,-466.44 553.94,-438.81"/>
<polygon fill="#b85b57" stroke="#b85b57" points="556.35,-441.37 560.3,-431.54 551.08,-436.75 556.35,-441.37"/>
</a>
</g>
</g>
<!-- n5 -->
<g id="node6" class="node">
<title>n5</title>
<g id="a_node6"><a xlink:title="Objection 2">
<path fill="#fffdf7" stroke="#6f8f72" stroke-width="2" d="M431.68,-658.92C431.68,-658.92 259.84,-658.92 259.84,-658.92 253.84,-658.92 247.84,-652.92 247.84,-646.92 247.84,-646.92 247.84,-634.92 247.84,-634.92 247.84,-628.92 253.84,-622.92 259.84,-622.92 259.84,-622.92 431.68,-622.92 431.68,-622.92 437.68,-622.92 443.68,-628.92 443.68,-634.92 443.68,-634.92 443.68,-646.92 443.68,-646.92 443.68,-652.92 437.68,-658.92 431.68,-658.92"/>
<text xml:space="preserve" text-anchor="start" x="318.53" y="-638.92" font-family="Inter, ui-sans-serif, system-ui, -apple-system, BlinkMacSystemFont, Segoe UI, sans-serif" font-weight="bold" font-size="10.00" fill="#2f2a21">Objection 2</text>
</a>
</g>
</g>
<!-- n5&#45;&gt;n0 -->
<g id="edge16" class="edge">
<title>n5&#45;&gt;n0</title>
<g id="a_edge16"><a xlink:title="attack">
<path fill="none" stroke="#b85b57" d="M420.31,-622.49C428.61,-618.74 436.62,-614.26 443.68,-608.92 503.44,-563.67 545.33,-483.42 564.61,-440.64"/>
<polygon fill="#b85b57" stroke="#b85b57" points="567.69,-442.32 568.52,-431.75 561.29,-439.5 567.69,-442.32"/>
</a>
</g>
</g>
<!-- n6 -->
<g id="node7" class="node">
<title>n6</title>
<g id="a_node7"><a xlink:title="Objection 3">
<path fill="#fffdf7" stroke="#6f8f72" stroke-width="2" d="M431.68,-732.92C431.68,-732.92 259.84,-732.92 259.84,-732.92 253.84,-732.92 247.84,-726.92 247.84,-720.92 247.84,-720.92 247.84,-708.92 247.84,-708.92 247.84,-702.92 253.84,-696.92 259.84,-696.92 259.84,-696.92 431.68,-696.92 431.68,-696.92 437.68,-696.92 443.68,-702.92 443.68,-708.92 443.68,-708.92 443.68,-720.92 443.68,-720.92 443.68,-726.92 437.68,-732.92 431.68,-732.92"/>
<text xml:space="preserve" text-anchor="start" x="318.53" y="-712.92" font-family="Inter, ui-sans-serif, system-ui, -apple-system, BlinkMacSystemFont, Segoe UI, sans-serif" font-weight="bold" font-size="10.00" fill="#2f2a21">Objection 3</text>
</a>
</g>
</g>
<!-- n6&#45;&gt;n0 -->
<g id="edge19" class="edge">
<title>n6&#45;&gt;n0</title>
<g id="a_edge19"><a xlink:title="attack">
<path fill="none" stroke="#b85b57" d="M423.01,-696.45C430.47,-692.73 437.54,-688.27 443.68,-682.92 519.87,-616.52 556.7,-496.37 570.23,-441.13"/>
<polygon fill="#b85b57" stroke="#b85b57" points="573.61,-442.08 572.5,-431.54 566.79,-440.47 573.61,-442.08"/>
</a>
</g>
</g>
<!-- n7 -->
<g id="node8" class="node">
<title>n7</title>
<g id="a_node8"><a xlink:title="Formal Core">
<path fill="#e8f1e8" stroke="#c8b794" d="M431.68,-186.92C431.68,-186.92 259.84,-186.92 259.84,-186.92 253.84,-186.92 247.84,-180.92 247.84,-174.92 247.84,-174.92 247.84,-162.92 247.84,-162.92 247.84,-156.92 253.84,-150.92 259.84,-150.92 259.84,-150.92 431.68,-150.92 431.68,-150.92 437.68,-150.92 443.68,-156.92 443.68,-162.92 443.68,-162.92 443.68,-174.92 443.68,-174.92 443.68,-180.92 437.68,-186.92 431.68,-186.92"/>
<text xml:space="preserve" text-anchor="start" x="316.31" y="-166.92" font-family="Inter, ui-sans-serif, system-ui, -apple-system, BlinkMacSystemFont, Segoe UI, sans-serif" font-weight="bold" font-size="10.00" fill="#2f2a21">Formal Core</text>
</a>
</g>
</g>
<!-- n7&#45;&gt;n0 -->
<g id="edge1" class="edge">
<title>n7&#45;&gt;n0</title>
<g id="a_edge1"><a xlink:title="support">
<path fill="none" stroke="#6f8f72" d="M429.74,-187.28C434.66,-189.79 439.35,-192.66 443.68,-195.92 509,-245.1 549.49,-336.58 566.81,-383.11"/>
<polygon fill="#6f8f72" stroke="#6f8f72" points="563.42,-384.02 570.11,-392.24 570,-381.64 563.42,-384.02"/>
</a>
</g>
</g>
<!-- n8 -->
<g id="node9" class="node">
<title>n8</title>
<g id="a_node9"><a xlink:title="P1">
<path fill="#e8f1e8" stroke="#c8b794" d="M431.68,-240.92C431.68,-240.92 259.84,-240.92 259.84,-240.92 253.84,-240.92 247.84,-234.92 247.84,-228.92 247.84,-228.92 247.84,-216.92 247.84,-216.92 247.84,-210.92 253.84,-204.92 259.84,-204.92 259.84,-204.92 431.68,-204.92 431.68,-204.92 437.68,-204.92 443.68,-210.92 443.68,-216.92 443.68,-216.92 443.68,-228.92 443.68,-228.92 443.68,-234.92 437.68,-240.92 431.68,-240.92"/>
<text xml:space="preserve" text-anchor="start" x="339.64" y="-220.92" font-family="Inter, ui-sans-serif, system-ui, -apple-system, BlinkMacSystemFont, Segoe UI, sans-serif" font-weight="bold" font-size="10.00" fill="#2f2a21">P1</text>
</a>
</g>
</g>
<!-- n8&#45;&gt;n0 -->
<g id="edge3" class="edge">
<title>n8&#45;&gt;n0</title>
<g id="a_edge3"><a xlink:title="support">
<path fill="none" stroke="#6f8f72" d="M427.78,-241.3C433.34,-243.81 438.7,-246.67 443.68,-249.92 497.03,-284.69 539.57,-347.65 561.13,-383.99"/>
<polygon fill="#6f8f72" stroke="#6f8f72" points="557.84,-385.29 565.89,-392.18 563.9,-381.78 557.84,-385.29"/>
</a>
</g>
</g>
<!-- n9 -->
<g id="node10" class="node">
<title>n9</title>
<g id="a_node10"><a xlink:title="P2">
<path fill="#e8f1e8" stroke="#c8b794" d="M431.68,-294.92C431.68,-294.92 259.84,-294.92 259.84,-294.92 253.84,-294.92 247.84,-288.92 247.84,-282.92 247.84,-282.92 247.84,-270.92 247.84,-270.92 247.84,-264.92 253.84,-258.92 259.84,-258.92 259.84,-258.92 431.68,-258.92 431.68,-258.92 437.68,-258.92 443.68,-264.92 443.68,-270.92 443.68,-270.92 443.68,-282.92 443.68,-282.92 443.68,-288.92 437.68,-294.92 431.68,-294.92"/>
<text xml:space="preserve" text-anchor="start" x="339.64" y="-274.92" font-family="Inter, ui-sans-serif, system-ui, -apple-system, BlinkMacSystemFont, Segoe UI, sans-serif" font-weight="bold" font-size="10.00" fill="#2f2a21">P2</text>
</a>
</g>
</g>
<!-- n9&#45;&gt;n0 -->
<g id="edge4" class="edge">
<title>n9&#45;&gt;n0</title>
<g id="a_edge4"><a xlink:title="support">
<path fill="none" stroke="#6f8f72" d="M424.32,-295.39C431.01,-297.91 437.55,-300.75 443.68,-303.92 485.21,-325.38 525.87,-361.22 551.05,-385.67"/>
<polygon fill="#6f8f72" stroke="#6f8f72" points="548.33,-387.9 557.91,-392.43 553.24,-382.92 548.33,-387.9"/>
</a>
</g>
</g>
<!-- n10 -->
<g id="node11" class="node">
<title>n10</title>
<g id="a_node11"><a xlink:title="P3">
<path fill="#e8f1e8" stroke="#c8b794" d="M431.68,-348.92C431.68,-348.92 259.84,-348.92 259.84,-348.92 253.84,-348.92 247.84,-342.92 247.84,-336.92 247.84,-336.92 247.84,-324.92 247.84,-324.92 247.84,-318.92 253.84,-312.92 259.84,-312.92 259.84,-312.92 431.68,-312.92 431.68,-312.92 437.68,-312.92 443.68,-318.92 443.68,-324.92 443.68,-324.92 443.68,-336.92 443.68,-336.92 443.68,-342.92 437.68,-348.92 431.68,-348.92"/>
<text xml:space="preserve" text-anchor="start" x="339.64" y="-328.92" font-family="Inter, ui-sans-serif, system-ui, -apple-system, BlinkMacSystemFont, Segoe UI, sans-serif" font-weight="bold" font-size="10.00" fill="#2f2a21">P3</text>
</a>
</g>
</g>
<!-- n10&#45;&gt;n0 -->
<g id="edge5" class="edge">
<title>n10&#45;&gt;n0</title>
<g id="a_edge5"><a xlink:title="support">
<path fill="none" stroke="#6f8f72" d="M416.67,-349.36C425.81,-352.07 435,-354.95 443.68,-357.92 470.68,-367.13 500.13,-378.91 524.44,-389.11"/>
<polygon fill="#6f8f72" stroke="#6f8f72" points="522.89,-392.26 533.47,-392.94 525.62,-385.82 522.89,-392.26"/>
</a>
</g>
</g>
<!-- n11 -->
<g id="node12" class="node">
<title>n11</title>
<g id="a_node12"><a xlink:title="P4">
<path fill="#e8f1e8" stroke="#c8b794" d="M431.68,-402.92C431.68,-402.92 259.84,-402.92 259.84,-402.92 253.84,-402.92 247.84,-396.92 247.84,-390.92 247.84,-390.92 247.84,-378.92 247.84,-378.92 247.84,-372.92 253.84,-366.92 259.84,-366.92 259.84,-366.92 431.68,-366.92 431.68,-366.92 437.68,-366.92 443.68,-372.92 443.68,-378.92 443.68,-378.92 443.68,-390.92 443.68,-390.92 443.68,-396.92 437.68,-402.92 431.68,-402.92"/>
<text xml:space="preserve" text-anchor="start" x="339.64" y="-382.92" font-family="Inter, ui-sans-serif, system-ui, -apple-system, BlinkMacSystemFont, Segoe UI, sans-serif" font-weight="bold" font-size="10.00" fill="#2f2a21">P4</text>
</a>
</g>
</g>
<!-- n11&#45;&gt;n0 -->
<g id="edge6" class="edge">
<title>n11&#45;&gt;n0</title>
<g id="a_edge6"><a xlink:title="support">
<path fill="none" stroke="#6f8f72" d="M443.9,-396.33C451.89,-397.27 460.01,-398.22 468.08,-399.17"/>
<polygon fill="#6f8f72" stroke="#6f8f72" points="467.6,-402.63 477.94,-400.32 468.41,-395.68 467.6,-402.63"/>
</a>
</g>
</g>
<!-- n12 -->
<g id="node13" class="node">
<title>n12</title>
<g id="a_node13"><a xlink:title="P5">
<path fill="#e8f1e8" stroke="#c8b794" d="M431.68,-456.92C431.68,-456.92 259.84,-456.92 259.84,-456.92 253.84,-456.92 247.84,-450.92 247.84,-444.92 247.84,-444.92 247.84,-432.92 247.84,-432.92 247.84,-426.92 253.84,-420.92 259.84,-420.92 259.84,-420.92 431.68,-420.92 431.68,-420.92 437.68,-420.92 443.68,-426.92 443.68,-432.92 443.68,-432.92 443.68,-444.92 443.68,-444.92 443.68,-450.92 437.68,-456.92 431.68,-456.92"/>
<text xml:space="preserve" text-anchor="start" x="339.64" y="-436.92" font-family="Inter, ui-sans-serif, system-ui, -apple-system, BlinkMacSystemFont, Segoe UI, sans-serif" font-weight="bold" font-size="10.00" fill="#2f2a21">P5</text>
</a>
</g>
</g>
<!-- n12&#45;&gt;n0 -->
<g id="edge7" class="edge">
<title>n12&#45;&gt;n0</title>
<g id="a_edge7"><a xlink:title="support">
<path fill="none" stroke="#6f8f72" d="M443.9,-427.5C451.89,-426.56 460.01,-425.61 468.08,-424.66"/>
<polygon fill="#6f8f72" stroke="#6f8f72" points="468.41,-428.15 477.94,-423.51 467.6,-421.2 468.41,-428.15"/>
</a>
</g>
</g>
<!-- n13 -->
<g id="node14" class="node">
<title>n13</title>
<g id="a_node14"><a xlink:title="Conclusion">
<path fill="#e8f1e8" stroke="#c8b794" d="M431.68,-510.92C431.68,-510.92 259.84,-510.92 259.84,-510.92 253.84,-510.92 247.84,-504.92 247.84,-498.92 247.84,-498.92 247.84,-486.92 247.84,-486.92 247.84,-480.92 253.84,-474.92 259.84,-474.92 259.84,-474.92 431.68,-474.92 431.68,-474.92 437.68,-474.92 443.68,-480.92 443.68,-486.92 443.68,-486.92 443.68,-498.92 443.68,-498.92 443.68,-504.92 437.68,-510.92 431.68,-510.92"/>
<text xml:space="preserve" text-anchor="start" x="318.54" y="-490.92" font-family="Inter, ui-sans-serif, system-ui, -apple-system, BlinkMacSystemFont, Segoe UI, sans-serif" font-weight="bold" font-size="10.00" fill="#2f2a21">Conclusion</text>
</a>
</g>
</g>
<!-- n13&#45;&gt;n0 -->
<g id="edge9" class="edge">
<title>n13&#45;&gt;n0</title>
<g id="a_edge9"><a xlink:title="support">
<path fill="none" stroke="#6f8f72" d="M416.67,-474.47C425.81,-471.76 435,-468.88 443.68,-465.92 470.68,-456.7 500.13,-444.92 524.44,-434.72"/>
<polygon fill="#6f8f72" stroke="#6f8f72" points="525.62,-438.02 533.47,-430.89 522.89,-431.57 525.62,-438.02"/>
</a>
</g>
</g>
<!-- n14 -->
<g id="node15" class="node">
<title>n14</title>
<g id="a_node15"><a xlink:title="Reply 1">
<path fill="#e8f1e8" stroke="#c8b794" d="M199.84,-565.92C199.84,-565.92 28,-565.92 28,-565.92 22,-565.92 16,-559.92 16,-553.92 16,-553.92 16,-541.92 16,-541.92 16,-535.92 22,-529.92 28,-529.92 28,-529.92 199.84,-529.92 199.84,-529.92 205.84,-529.92 211.84,-535.92 211.84,-541.92 211.84,-541.92 211.84,-553.92 211.84,-553.92 211.84,-559.92 205.84,-565.92 199.84,-565.92"/>
<text xml:space="preserve" text-anchor="start" x="96.13" y="-545.92" font-family="Inter, ui-sans-serif, system-ui, -apple-system, BlinkMacSystemFont, Segoe UI, sans-serif" font-weight="bold" font-size="10.00" fill="#2f2a21">Reply 1</text>
</a>
</g>
</g>
<!-- n14&#45;&gt;n0 -->
<g id="edge14" class="edge">
<title>n14&#45;&gt;n0</title>
<g id="a_edge14"><a xlink:title="support">
<path fill="none" stroke="#6f8f72" d="M212.29,-541.02C305.32,-534.22 432.97,-524.24 443.68,-519.92 487.77,-502.12 528.65,-464.41 553.12,-438.61"/>
<polygon fill="#6f8f72" stroke="#6f8f72" points="555.5,-441.19 559.74,-431.48 550.37,-436.43 555.5,-441.19"/>
</a>
</g>
</g>
<!-- n14&#45;&gt;n4 -->
<g id="edge12" class="edge">
<title>n14&#45;&gt;n4</title>
<g id="a_edge12"><a xlink:title="attack">
<path fill="none" stroke="#b85b57" d="M212.06,-555.95C220.05,-556.61 228.17,-557.28 236.24,-557.94"/>
<polygon fill="#b85b57" stroke="#b85b57" points="235.84,-561.42 246.09,-558.76 236.41,-554.45 235.84,-561.42"/>
</a>
</g>
</g>
<!-- n15 -->
<g id="node16" class="node">
<title>n15</title>
<g id="a_node16"><a xlink:title="Reply 2">
<path fill="#e8f1e8" stroke="#c8b794" d="M199.84,-639.92C199.84,-639.92 28,-639.92 28,-639.92 22,-639.92 16,-633.92 16,-627.92 16,-627.92 16,-615.92 16,-615.92 16,-609.92 22,-603.92 28,-603.92 28,-603.92 199.84,-603.92 199.84,-603.92 205.84,-603.92 211.84,-609.92 211.84,-615.92 211.84,-615.92 211.84,-627.92 211.84,-627.92 211.84,-633.92 205.84,-639.92 199.84,-639.92"/>
<text xml:space="preserve" text-anchor="start" x="96.13" y="-619.92" font-family="Inter, ui-sans-serif, system-ui, -apple-system, BlinkMacSystemFont, Segoe UI, sans-serif" font-weight="bold" font-size="10.00" fill="#2f2a21">Reply 2</text>
</a>
</g>
</g>
<!-- n15&#45;&gt;n0 -->
<g id="edge17" class="edge">
<title>n15&#45;&gt;n0</title>
<g id="a_edge17"><a xlink:title="support">
<path fill="none" stroke="#6f8f72" d="M212.12,-615.6C305.4,-609.25 433.6,-599.59 443.68,-593.92 505.5,-559.13 546.43,-482.33 565.04,-440.48"/>
<polygon fill="#6f8f72" stroke="#6f8f72" points="568.15,-442.11 568.9,-431.54 561.73,-439.33 568.15,-442.11"/>
</a>
</g>
</g>
<!-- n15&#45;&gt;n5 -->
<g id="edge15" class="edge">
<title>n15&#45;&gt;n5</title>
<g id="a_edge15"><a xlink:title="attack">
<path fill="none" stroke="#b85b57" d="M212.06,-629.95C220.05,-630.61 228.17,-631.28 236.24,-631.94"/>
<polygon fill="#b85b57" stroke="#b85b57" points="235.84,-635.42 246.09,-632.76 236.41,-628.45 235.84,-635.42"/>
</a>
</g>
</g>
<!-- n16 -->
<g id="node17" class="node">
<title>n16</title>
<g id="a_node17"><a xlink:title="Reply 3">
<path fill="#e8f1e8" stroke="#c8b794" d="M199.84,-713.92C199.84,-713.92 28,-713.92 28,-713.92 22,-713.92 16,-707.92 16,-701.92 16,-701.92 16,-689.92 16,-689.92 16,-683.92 22,-677.92 28,-677.92 28,-677.92 199.84,-677.92 199.84,-677.92 205.84,-677.92 211.84,-683.92 211.84,-689.92 211.84,-689.92 211.84,-701.92 211.84,-701.92 211.84,-707.92 205.84,-713.92 199.84,-713.92"/>
<text xml:space="preserve" text-anchor="start" x="96.13" y="-693.92" font-family="Inter, ui-sans-serif, system-ui, -apple-system, BlinkMacSystemFont, Segoe UI, sans-serif" font-weight="bold" font-size="10.00" fill="#2f2a21">Reply 3</text>
</a>
</g>
</g>
<!-- n16&#45;&gt;n0 -->
<g id="edge20" class="edge">
<title>n16&#45;&gt;n0</title>
<g id="a_edge20"><a xlink:title="support">
<path fill="none" stroke="#6f8f72" d="M212.31,-689.91C305.74,-683.8 434.06,-674.33 443.68,-667.92 524.01,-614.31 558.74,-496.19 570.99,-441.18"/>
<polygon fill="#6f8f72" stroke="#6f8f72" points="574.37,-442.13 573.02,-431.62 567.52,-440.67 574.37,-442.13"/>
</a>
</g>
</g>
<!-- n16&#45;&gt;n6 -->
<g id="edge18" class="edge">
<title>n16&#45;&gt;n6</title>
<g id="a_edge18"><a xlink:title="attack">
<path fill="none" stroke="#b85b57" d="M212.06,-703.95C220.05,-704.61 228.17,-705.28 236.24,-705.94"/>
<polygon fill="#b85b57" stroke="#b85b57" points="235.84,-709.42 246.09,-706.76 236.41,-702.45 235.84,-709.42"/>
</a>
</g>
</g>
</g>
</svg>
